<?xml version="1.0" encoding="UTF-8"?> <svg xmlns="http://www.w3.org/2000/svg" xmlns:xlink="http://www.w3.org/1999/xlink" xml:space="preserve" width="231.662mm" height="242.519mm" version="1.1" style="shape-rendering:geometricPrecision; text-rendering:geometricPrecision; image-rendering:optimizeQuality; fill-rule:evenodd; clip-rule:evenodd" viewBox="0 0 4284.13 4484.91"> <defs> <style type="text/css"> .fil1 {fill:#006838} .fil4 {fill:#026C57} .fil3 {fill:#0D997D} .fil0 {fill:#9CBFB8} .fil2 {fill:#9CBFB8} </style> </defs> <g id="Слой_x0020_1"> <metadata id="CorelCorpID_0Corel-Layer"></metadata> <path id="path1" class="fil0" d="M221.8 1567.9l487.98 0 0 850.32 -53.98 0 0 -798.05 -380.02 0 -5.88 201.68c-1.14,67.97 -4.65,126.33 -8.26,176.13 -5.88,97.16 -19.92,200.4 -43.45,264.84 -34.06,99.61 -91.55,156.68 -190.01,156.68 -12.9,0 -22.29,0 -28.18,-1.17l0 -53.44c7.02,1.18 17.55,1.18 31.69,1.18 78.54,6.09 125.5,-71.72 150.17,-167.59 8.26,-30.35 15.28,-70.43 19.92,-119.06 4.65,-49.8 8.26,-94.8 9.39,-137.23 2.37,-42.54 4.65,-95.98 5.88,-157.97l4.75 -216.32z"></path> <path id="path2" class="fil0" d="M1530.91 1563.08l-50.47 0 -373 855.13 57.49 0 343.11 -779.68c106.56,253.75 227.24,527.4 337.24,779.68l56.36 0 -370.73 -855.13z"></path> <path id="path3" class="fil0" d="M2298.17 2418.21l0 -850.32 53.98 0 -8.81 756.01 563.66 -756.01 49.23 0 0 850.32 -53.98 0 12.23 -774.61 -569.46 774.61 -46.86 0zm145.42 -1090.79l48.1 0c0,76.53 52.84,127.5 136.03,127.5 79.78,0 133.76,-53.43 133.76,-127.5l48.09 0c-1.13,103.24 -77.41,173.67 -181.85,173.67 -111.36,0 -182.89,-68.08 -184.13,-173.67z"></path> <path id="path4" class="fil0" d="M3817.31 2440.01l0 -83.8c-290.95,-2.46 -415.21,-173.67 -414.08,-361.99 0,-102.06 35.19,-188.32 104.34,-258.75 69.25,-71.72 172.47,-106.87 309.63,-108.05l0 -77.7 53.98 -0 0 77.7c289.71,1.18 412.94,178.6 412.94,364.45 0,188.32 -123.13,360.82 -412.94,364.46l0 83.79 -53.87 0 0 -0.11zm0 -760.32c-127.88,0 -227.58,40.08 -280.32,103.24 -52.74,61.99 -78.54,131.13 -78.54,208.94 0,77.71 25.8,148.24 78.54,210.13 52.74,61.99 152.55,102.06 280.32,102.06l0 -624.37zm53.97 624.27c127.88,0 227.58,-40.08 280.32,-102.06 52.74,-61.99 77.41,-132.43 77.41,-210.13 0,-77.7 -24.67,-146.96 -77.41,-208.95 -52.74,-63.16 -152.55,-103.24 -280.32,-103.24l0 624.38z"></path> <polygon id="path5" class="fil1" points="966.25,3880.72 430.9,3880.72 430.9,3894.08 966.25,3894.08 "></polygon> <polygon id="path6" class="fil1" points="3825.15,3880.72 3289.81,3880.72 3289.81,3894.08 3825.15,3894.08 "></polygon> <path id="path7" class="fil2" d="M2071.83 1036.49c-440.71,-298.51 -317.68,-919.25 -319.54,-1008.5 -88.66,223.16 -71.53,453.27 -71.53,513.44 0,256.29 172.05,470.69 402.72,526.91 -3.82,-9.4 -10.11,-26.83 -11.66,-31.85z"></path> <path id="path8" class="fil2" d="M2489.52 88.28c24.77,357.51 -461.45,605.46 -364.12,919.58 134.07,-112.44 337.91,-310.16 396.84,-513.01 -29.93,132.31 -113.53,366.7 -345.55,587.29 300.45,15.61 549.59,-232.24 549.59,-540.69 0.1,-189.6 -94.13,-356.44 -236.76,-453.16z"></path> <path id="path9" class="fil2" d="M2203.52 0c-108.48,0 -205.59,50.77 -260.19,83.47 -85.15,-55.47 -130.15,-55.47 -166.78,-65.41 31.99,38.15 401.28,233.1 299.31,501.68 -50.16,132.21 -37.05,262.27 -36.95,349.39 -155.12,-202.11 -183.09,-384.76 -183.09,-384.76 -3.82,196.87 124.99,398.65 201.56,498.58 -21.26,-463.21 404.28,-716.51 413.56,-906.75 -78.23,-48.31 -169.67,-76.2 -267.41,-76.2l0 0z"></path> <polygon id="path10" class="fil3" points="727.32,2698.46 727.32,2932.42 968.1,2698.46 1040.97,2698.46 785.32,2944.71 1080.29,3237.13 1002.99,3237.13 727.32,2963.2 727.32,3237.13 672.31,3237.13 672.31,2698.46 "></polygon> <path id="path11" class="fil3" d="M1114.46 3184.73c3.72,0.75 11.14,1.5 20.85,1.5 47.58,0 72.04,-37.73 87.73,-96.19 5.16,-18.49 9.7,-41.58 11.87,-69.26 2.99,-28.43 5.16,-55.37 6.71,-81.55 1.55,-26.18 2.27,-57.72 2.99,-93.94l2.99 -146.96 325.53 0 0 538.77 -55.01 0 0 -487.15 -217.05 -0 -3.72 123.12c-2.99,99.29 -7.43,163.95 -22.29,227.75 -20.85,91.6 -61.72,133.92 -139.74,137.02 -9.71,0 -17.13,0 -20.85,-0.75l0 -52.37z"></path> <polygon id="path12" class="fil3" points="1719.37,3237.11 1719.37,2698.44 1773.66,2698.44 1773.66,3141.77 2096.91,2698.44 2145.21,2698.44 2145.21,3237.11 2090.92,3237.11 2090.92,2792.28 1765.4,3237.11 "></polygon> <polygon id="path13" class="fil3" points="2291.56,3237.11 2291.56,2698.44 2346.57,2698.44 2346.57,2922.35 2655.78,2922.35 2655.78,2698.44 2710.8,2698.44 2710.8,3237.11 2655.78,3237.11 2655.78,2973.86 2346.57,2973.86 2346.57,3237.11 "></polygon> <polygon id="path14" class="fil3" points="2857.04,3237.11 2857.04,2698.44 2911.33,2698.44 2911.33,3141.77 3234.59,2698.44 3282.89,2698.44 3282.89,3237.11 3228.6,3237.11 3228.6,2792.28 2903.08,3237.11 "></polygon> <polygon id="path15" class="fil3" points="3484.15,2698.44 3484.15,2932.39 3724.93,2698.44 3797.8,2698.44 3542.15,2944.69 3837.22,3237.11 3759.92,3237.11 3484.25,2963.18 3484.25,3237.11 3429.24,3237.11 3429.24,2698.44 "></polygon> <path id="path16" class="fil0" d="M1687.66 1924.64c-152.44,56.64 -302.02,138.11 -432.62,233.28l-7.1 52.11c129.83,-99.82 303.13,-172.82 453.4,-235.13 -5.98,-16.67 -7.29,-34.12 -13.69,-50.26z"></path> <path id="path17" class="fil4" d="M1383.32 3882.01c0.72,19.45 5.88,29.18 15.38,29.18 7.74,0 17.86,-5.46 30.34,-16.57 3.2,-2.89 5.88,-5.45 8.25,-7.48 2.27,-2.04 4.33,-3.74 6.09,-5.24 1.76,-1.5 3.4,-2.99 4.75,-4.38 0.72,0 1.03,0.32 1.03,1.07 0.31,1.5 -0.52,4.06 -2.68,7.7 -5.99,9.94 -14.04,18.7 -23.95,26.4 -11.04,8.44 -21.68,12.61 -31.89,12.61 -5.36,0 -10.22,-1.07 -14.66,-3.32 -4.44,-2.24 -8.05,-5.56 -10.94,-9.94 -2.89,-4.38 -4.65,-10.04 -5.36,-17.1 -0.72,-6.95 0.2,-15.17 2.68,-24.79 4.96,-17.21 9.39,-29.6 13.31,-36.87 3.93,-7.38 6.2,-12.5 6.92,-15.39 -6.71,8.77 -15.27,18.49 -25.49,28.96 -10.32,10.47 -20.43,20.2 -30.55,29.17 -10.11,8.98 -19.19,16.57 -27.35,22.88 -8.15,6.2 -13.62,9.4 -16.51,9.4 -4.96,0 -7.43,-4.07 -7.43,-12.08 0,-8.87 2.27,-20.73 6.92,-35.8 4.64,-15.07 10.94,-32.27 19.09,-51.73 -6.4,9.51 -12.9,19.77 -19.72,30.57 -6.71,10.8 -13.62,21.16 -20.74,31.1 -7.12,9.95 -14.35,19.03 -21.78,27.26 -7.43,8.23 -14.76,14.64 -22.09,19.03 -7.22,4.38 -14.55,6.52 -21.78,6.3 -7.22,-0.21 -14.24,-3.74 -21.05,-10.68 -2.79,-2.89 -4.23,-6.63 -4.23,-11.01 0,-4.38 1.03,-8.55 2.89,-12.4 1.96,-3.85 4.65,-6.74 8.26,-8.77 3.51,-2.03 7.43,-1.92 11.66,0.32 2.48,14 6.81,21.59 13,22.87 6.19,1.29 13.11,-0.96 20.75,-6.83 7.64,-5.88 15.59,-14.33 23.95,-25.33 8.36,-11.01 16.09,-22.02 23.43,-33.02 7.22,-11.01 13.52,-20.95 18.89,-29.72 5.36,-8.76 8.67,-13.89 10.11,-15.39 5.68,-11.33 11.25,-19.88 16.72,-25.33 5.47,-5.45 11.97,-8.23 19.4,-8.23 2.79,0 4.23,0.96 4.23,2.78 0,0.32 -0.2,0.75 -0.52,1.07 -4.65,11.76 -9.08,23.51 -13.52,35.26 -4.44,11.76 -8.46,22.67 -12.28,32.81 -3.72,10.15 -6.71,19.13 -9.09,26.94 -2.27,7.91 -3.4,13.89 -3.4,17.85 0,4.06 1.03,6.1 3.2,6.1 2.48,0 6.29,-2.25 11.45,-6.84 5.16,-4.6 10.94,-10.48 17.23,-17.63 6.4,-7.16 13.21,-15.28 20.43,-24.48 7.23,-9.19 14.14,-18.17 20.44,-26.94 6.39,-8.77 12.17,-17.09 17.23,-24.79 5.16,-7.7 8.98,-14 11.45,-18.7 0.31,-1.5 1.76,-2.99 4.23,-4.7 2.48,-1.6 5.26,-3.2 8.25,-4.7 3,-1.5 5.89,-2.78 8.78,-3.85 2.79,-1.07 4.95,-1.6 6.39,-1.6 2.17,0 3.2,0.75 3.2,2.24l0 0.53c-2.48,4.81 -5.99,11.65 -10.63,20.63 -4.65,8.98 -9.5,19.35 -14.66,31.1 -5.16,11.76 -10.32,24.37 -15.38,37.95 -4.85,13.36 -9.18,27.25 -12.69,41.57l0.01 -0z"></path> <path id="path18" class="fil4" d="M1579.52 3831.99c0,1.5 -2.48,2.25 -7.43,2.25 -2.16,0 -5.36,-0.32 -9.6,-0.86 -4.23,-0.53 -7.43,-0.86 -9.6,-0.86 -16,0 -36.02,2.57 -60.07,7.7 -12.38,23.51 -18.58,41.15 -18.58,52.91 0,12.82 6.4,19.24 19.2,19.24 10.63,0 22.5,-4.38 35.61,-13.25 8.87,-6.2 18.27,-14.64 28.17,-25.33 8.46,-8.76 12.9,-13.25 13.31,-13.25 1.03,0 1.55,0.75 1.55,2.25 0,8.44 -6.61,17.95 -19.71,28.64 -28.38,22.45 -58.11,33.56 -89.38,33.56 -8.46,0 -14.03,-1.81 -16.51,-5.45 -1.76,-2.56 -2.69,-7.38 -2.69,-14.32 0,-13.57 5.88,-33.24 17.55,-58.89 -0.31,-0.75 -0.52,-1.28 -0.52,-1.6 0,-0.32 1.55,-2.99 4.75,-7.69 2.16,-4.07 5.16,-9.73 9.08,-17.1 15.59,-26.4 32.82,-42.22 51.61,-47.35 4.64,-1.07 8.36,-1.6 11.14,-1.6 2.48,0 3.72,0.53 3.72,1.6 0,1.5 -2.27,3.85 -6.92,7.16 -9.18,6.95 -20.54,22.45 -34.05,46.28 18.47,-3.32 34.37,-4.38 47.89,-3.32 10.63,-15.82 15.99,-30.99 15.99,-45.74 0,-4.06 -0.41,-6.41 -1.34,-7.16 -0.93,-0.75 -2.99,-1.07 -6.4,-1.07 -3.4,0 -5.06,-0.86 -5.06,-2.78 0,-1.82 2.79,-3.52 8.46,-4.92 5.68,-1.5 10.11,-2.25 13.31,-2.25 9.6,0 14.35,4.6 14.35,13.79 0,7.7 -3.19,17.32 -9.6,28.65 -6.39,11.43 -12.8,18.91 -19.09,22.55 13.93,2.46 20.85,5.23 20.85,8.22l0.01 0.01z"></path> <path id="path19" class="fil4" d="M1745.48 3760.92l-6.39 11.54c-4.65,8.13 -12.8,26.83 -24.46,56.22 -9.18,25.01 -23.43,62.2 -42.52,111.79 3.51,-0.43 8.36,-0.53 14.35,-0.53 8.46,0 12.8,1.82 12.8,5.56 0,1.5 -9.39,2.25 -28.17,2.25l-1.55 0c-17.03,42.22 -38.5,77.27 -64.3,105.17 -32.62,34.84 -67.91,52.37 -105.79,52.37 -16.62,0 -31.38,-4.06 -44.17,-12.07 -14.86,-9.19 -22.29,-22.02 -22.29,-38.59 0,-32.28 28.7,-60.82 86.18,-85.4 35.5,-15.39 79.57,-24.79 132.41,-28.11 7.12,-18.38 14.56,-38.9 22.29,-61.67 3.51,-9.51 8.36,-24.26 14.35,-44.04 -9.6,16.57 -23.95,34.53 -43.04,53.98 -23.01,23.84 -41.28,35.8 -54.8,35.8 -6.71,0 -10.12,-4.81 -10.12,-14.32 0,-22.34 10.12,-50.66 30.34,-84.76 21.68,-37.41 42.32,-55.25 62.23,-53.43 11.67,-5.88 20.54,-8.77 26.63,-8.77 3.2,0 9.08,0.53 17.55,1.6l0.52 -1.6c5.68,-5.56 12.8,-8.23 21.26,-8.23 4.96,0 7.43,1.5 7.43,4.38l-0.72 0.86zm-97.33 187.25c-49.64,2.89 -91.34,13.36 -124.99,31.42 -46.13,24.26 -69.15,50.12 -69.15,77.7 0,11.75 4.65,20.94 13.84,27.57 7.84,5.88 17.55,8.87 29.2,8.87 30.86,0 61.31,-17.32 91.45,-51.73 23.11,-25.97 43.03,-57.18 59.65,-93.83l0 -0zm58 -169.08c-3.19,-1.5 -6.71,-2.25 -10.63,-2.25 -12.8,0 -24.67,6.2 -35.61,18.7 -9.6,10.69 -19.51,25.97 -29.83,45.96 -10.32,19.98 -17.75,37.94 -22.29,53.65 -1.03,2.99 -1.55,5.34 -1.55,7.16 0,2.57 0.93,3.85 2.69,3.85 2.48,0 6.61,-2.24 12.28,-6.62 18.78,-13.89 35.3,-32.17 49.44,-54.51 7.64,-11.97 19.51,-33.99 35.5,-65.94l-0 0z"></path> <path id="path20" class="fil4" d="M1857.67 3925.62c-15.59,0 -23.43,-11.97 -23.43,-35.8 0,-8.01 1.03,-18.7 3.2,-31.96 2.48,-15.82 3.92,-26.4 4.23,-31.96 -46.76,62.09 -78.86,93.09 -96.3,93.09 -13.11,0 -19.72,-7.16 -19.72,-21.48 0,-12.08 3.92,-26.94 11.67,-44.57 1.03,-2.25 8.15,-15.92 21.26,-41.26l-1.04 -0c-2.16,0 -3.19,-0.96 -3.19,-2.78 0,-0.75 0.2,-1.6 0.52,-2.77 10.32,-19.13 16.1,-29.39 17.55,-30.89 6.71,-7.7 17.34,-11.55 31.89,-11.55 1.76,0 2.68,1.07 2.68,3.32 0,2.99 -9.39,19.77 -28.17,50.66 -5.36,8.77 -11.04,20.73 -17.03,35.8 -6.71,17.31 -10.11,29.6 -10.11,36.87 0,5.13 1.55,7.7 4.75,7.7 4.95,0 12.6,-4.6 22.91,-13.79 24.15,-20.95 47.48,-50.13 70.18,-87.53l1.55 -6.1c2.79,-11.01 7.23,-18.49 13.31,-22.55 5.99,-4.06 13.83,-6.09 23.43,-6.09 5.68,0 8.46,1.5 8.46,4.38 0,2.56 -3,7.48 -9.09,14.85 -7.12,8.44 -11.14,13.58 -12.28,15.39 -4.23,8.45 -8.16,22.55 -11.67,42.44 -3.2,18.38 -4.75,33.45 -4.75,45.21 0,16.56 4.02,24.79 12.28,24.79 7.12,0 16,-4.92 26.83,-14.85 10.84,-9.94 16,-14.85 15.69,-14.85 0.31,0 0.52,0.31 0.52,1.07 0,8.12 -8.67,18.91 -26,32.49 -11.15,8.44 -21.26,12.72 -30.14,12.72l-0 0z"></path> <path id="path21" class="fil4" d="M2072.04 3905.2c-2.89,12.82 -8.15,23.3 -16,31.42 -7.84,8.12 -16.92,14.74 -27.35,20.09 -10.42,5.34 -21.78,9.73 -34.06,13.25 -12.28,3.53 -24.15,7.06 -35.92,10.69 -11.66,3.63 -22.5,7.7 -32.41,12.08 -9.91,4.38 -18.06,10.25 -24.46,17.63 -11.67,13.9 -14.35,25.87 -7.95,35.8 2.48,2.89 5.36,5.67 8.77,8.23 3.4,2.56 7.54,4.81 12.49,6.63 -3.2,1.07 -7.54,0.31 -13.01,-2.25 -5.47,-2.56 -9.29,-5.45 -11.45,-8.77 -2.89,-4.06 -4.85,-8.87 -6.09,-14.64 -1.23,-5.66 -1.65,-11.43 -1.34,-17.09 0.31,-5.67 1.44,-11.22 3.2,-16.57 1.76,-5.34 4.23,-9.83 7.43,-13.47l0.52 -1.07c5.36,-5.88 13.21,-10.68 23.64,-14.32 10.42,-3.63 21.88,-6.95 34.26,-9.94 12.38,-2.99 25.18,-5.88 38.29,-8.77 13.11,-2.99 25.08,-6.74 35.92,-11.33 10.84,-4.59 19.61,-10.37 26.32,-17.31 5.68,-5.56 9.18,-12.29 10.63,-20.42 -3.92,2.99 -7.64,5.88 -11.15,8.77 -3.51,2.99 -7.33,5.45 -11.45,7.48 -4.12,2.04 -8.25,2.99 -12.49,2.99 -7.85,-0.42 -13.63,-3.31 -17.55,-8.87 -3.92,-5.45 -5.88,-14.1 -5.88,-25.86 0,-3.64 0.31,-8.77 1.03,-15.39 0.72,-6.63 1.55,-13.25 2.37,-19.88 0.93,-6.62 1.76,-12.61 2.68,-17.85 0.83,-5.34 1.34,-8.87 1.34,-10.69 -46.75,62.09 -78.85,93.09 -96.29,93.09 -13.11,0 -19.72,-7.16 -19.72,-21.48 0,-12.51 3.92,-27.36 11.67,-44.57 0.72,-1.07 2.78,-5.02 6.08,-11.86 3.41,-6.84 8.46,-16.57 15.17,-29.5l-1.04 -0c-2.16,0 -3.2,-0.96 -3.2,-2.78 0,-1.07 0.21,-2.03 0.52,-2.77 5.67,-11.01 10.32,-19.35 13.83,-25.01 3.51,-5.67 6.91,-9.83 10.11,-12.4 3.2,-2.57 6.61,-4.07 10.32,-4.38 3.72,-0.32 8.77,-0.53 15.17,-0.53 1.75,0 2.68,1.07 2.68,3.31 0,2.57 -9.39,19.45 -28.17,50.66 -2.89,4.38 -5.88,10.16 -9.08,17.32 -3.2,7.16 -6.09,14.32 -8.78,21.48 -2.68,7.16 -4.85,13.9 -6.61,20.09 -1.75,6.2 -2.68,10.79 -2.68,13.79 0,5.13 1.55,7.7 4.75,7.7 4.65,0 10.63,-2.89 18.06,-8.77 7.43,-5.88 15.48,-13.68 24.15,-23.41 8.67,-9.72 17.44,-20.63 26.32,-32.81 8.88,-12.08 17.03,-24.26 24.46,-36.34l1.55 -6.1c2.79,-11.01 7.22,-18.49 13.31,-22.54 5.99,-4.07 13.83,-6.1 23.43,-6.1 5.68,0 8.46,1.5 8.46,4.38 0,1.07 -1.03,3.21 -3.2,6.31 -2.16,3.1 -4.54,6.41 -7.22,9.94 -2.69,3.52 -5.16,6.63 -7.43,9.4 -2.27,2.78 -3.4,4.28 -3.4,4.7 -1.75,3.31 -3.61,8.77 -5.57,16.24 -1.97,7.48 -3.72,15.61 -5.37,24.26 -1.55,8.66 -2.89,17.31 -4.02,25.87 -1.03,8.65 -1.55,15.71 -1.55,21.16 0,16.56 4.02,24.79 12.28,24.79 2.79,0 5.99,-1.07 9.6,-3.32l10.63 -7.16c1.44,-1.07 2.79,-2.25 4.23,-3.32 1.03,-1.82 1.76,-3.32 2.16,-4.38 0.72,-1.5 2.17,-2.03 4.23,-1.6 1.76,0.32 2.69,2.25 2.69,5.45 0,0.43 0.2,0.75 0.52,1.07l-0.52 0.53c-0.1,2.68 -1.13,5.67 -2.89,8.98l0 0.01z"></path> <path id="path22" class="fil4" d="M2214.57 3925.62c-15.59,0 -23.43,-11.97 -23.43,-35.8 0,-8.01 1.03,-18.7 3.19,-31.96 2.48,-15.82 3.93,-26.4 4.23,-31.96 -46.75,62.09 -78.85,93.09 -96.3,93.09 -13.1,0 -19.71,-7.16 -19.71,-21.48 0,-12.08 3.92,-26.94 11.67,-44.57 1.03,-2.25 8.15,-15.92 21.26,-41.26l-1.03 -0c-2.16,0 -3.2,-0.96 -3.2,-2.78 0,-0.75 0.21,-1.6 0.52,-2.77 10.32,-19.13 16.09,-29.39 17.54,-30.89 6.71,-7.7 17.34,-11.55 31.9,-11.55 1.75,0 2.68,1.07 2.68,3.32 0,2.99 -9.39,19.77 -28.17,50.66 -5.36,8.77 -11.04,20.73 -17.03,35.8 -6.71,17.31 -10.11,29.6 -10.11,36.87 0,5.13 1.55,7.7 4.75,7.7 4.95,0 12.59,-4.6 22.91,-13.79 24.15,-20.95 47.48,-50.13 70.18,-87.53l1.55 -6.1c2.79,-11.01 7.22,-18.49 13.31,-22.55 5.99,-4.06 13.83,-6.09 23.43,-6.09 5.68,0 8.46,1.5 8.46,4.38 0,2.56 -2.99,7.48 -9.08,14.85 -7.12,8.44 -11.14,13.58 -12.28,15.39 -4.23,8.45 -8.15,22.55 -11.66,42.44 -3.2,18.38 -4.75,33.45 -4.75,45.21 0,16.56 4.02,24.79 12.28,24.79 7.12,0 15.99,-4.92 26.83,-14.85 10.84,-9.94 16,-14.85 15.69,-14.85 0.41,0 0.52,0.31 0.52,1.07 0,8.12 -8.67,18.91 -26.11,32.49 -11.04,8.44 -21.15,12.72 -30.03,12.72l0 0z"></path> <path id="path23" class="fil4" d="M2377.85 3806.65c3.92,-9.94 8.78,-16.57 14.66,-19.88 5.88,-3.32 12.9,-4.92 21.05,-4.92 4.96,0 7.12,1.28 6.4,3.85 0,1.07 -1.13,2.99 -3.4,5.77 -2.27,2.78 -4.85,5.56 -7.74,8.55l-11.14 11.54c-2.17,2.99 -4.65,7.59 -7.43,14 -2.89,6.41 -5.57,13.36 -8.25,20.94 -2.69,7.59 -5.06,14.97 -7.22,22.34 -2.17,7.38 -3.51,13.36 -4.23,18.17 -2.89,14.32 -0.72,21.48 6.39,21.48 2.48,0 6.09,-1.28 10.94,-3.85 4.75,-2.56 9.6,-5.56 14.35,-8.76 4.75,-3.32 8.77,-6.2 11.97,-8.77 2.48,-1.82 3.72,-2.99 3.72,-3.32 -0.31,1.82 -2.27,4.92 -5.89,9.09 -3.51,4.16 -7.95,8.55 -13.31,12.93 -5.36,4.38 -11.14,8.34 -17.55,11.86 -6.39,3.53 -12.38,5.24 -18.06,5.24 -13.52,0 -18.27,-10.26 -14.35,-30.89 0.31,-3.32 1.65,-8.55 4.02,-15.71 2.27,-7.16 4.65,-14.43 7.23,-21.8 1.75,-4.81 3.4,-9.41 4.75,-13.79 -1.44,0 -3,0.21 -4.75,0.53 -8.46,1.07 -18.06,3.31 -28.7,6.62 -9.6,2.99 -19.19,6.41 -28.69,10.47l-0.52 1.07c-4.65,11.43 -9.08,22.01 -13.31,31.96 -4.23,9.94 -7.64,17.63 -10.12,23.09 -0.72,1.5 -2.37,2.99 -5.05,4.7 -2.69,1.71 -5.37,3.21 -8.26,4.7 -2.89,1.5 -5.68,2.77 -8.57,3.84 -2.89,1.07 -4.75,1.61 -5.88,1.61 -2.17,0 -3.2,-0.53 -3.2,-1.61l0 -1.07c8.88,-15.39 17.55,-32.81 26.11,-52.37 0.31,-0.75 0.52,-1.5 0.52,-2.25 8.88,-20.2 18.47,-42.53 28.7,-67.23 0,-0.74 -0.93,-1.07 -2.69,-1.07 -1.76,0 -2.69,-0.53 -2.69,-1.6 0,-0.32 6.4,-11.54 19.2,-33.56 1.44,-2.25 4.65,-4.38 9.6,-6.63 4.95,-2.24 8.88,-3.31 11.67,-3.31 3.51,0 5.26,1.6 5.26,4.92 0,-0.75 -1.24,1.71 -3.72,7.48 -2.48,5.66 -5.68,13.15 -9.6,22.33 -3.93,9.19 -8.36,19.67 -13.31,31.42 -3.2,6.95 -6.2,14 -9.09,20.95 2.79,-0.75 5.89,-1.61 9.09,-2.78 9.9,-3.32 19.3,-5.88 28.17,-7.7 8.46,-1.5 16.1,-2.56 22.81,-3.31 2.16,-5.13 3.4,-8.44 3.72,-9.94l6.39 -15.4z"></path> <path id="path24" class="fil4" d="M2566.62 3778.55c0,7.7 -2.9,15.4 -8.57,23.09 -5.68,7.7 -11.87,11.55 -18.58,11.55 -1.44,0 -2.16,-0.53 -2.16,-1.6 0,-0.75 0.31,-1.71 1.03,-2.78 2.79,-6.2 4.23,-13.58 4.23,-22.02 0,-10.69 -2.99,-15.92 -9.08,-15.92 -5.68,0 -12.38,2.99 -20.23,8.77 -10.63,8.12 -23.22,25.54 -37.77,52.37 -14.87,27.9 -22.29,48.31 -22.29,61.13 0,12.83 6.39,19.24 19.09,19.24 10.63,0 22.29,-4.38 35.09,-13.25 8.87,-6.2 18.47,-14.64 28.69,-25.33 8.46,-8.77 13.11,-13.25 13.83,-13.25 0.72,0 1.03,0.75 1.03,2.25 0,8.44 -6.6,17.95 -19.71,28.64 -28.38,22.45 -58.11,33.56 -89.38,33.56 -8.88,0 -14.35,-1.81 -16.51,-5.45 -1.76,-2.56 -2.69,-7.38 -2.69,-14.32 0,-5.88 0.72,-11.76 2.17,-17.63 9.18,-33.78 23.43,-62.2 42.52,-85.4 23.43,-28.32 49.96,-42.43 79.78,-42.43 13.11,0.1 19.51,6.31 19.51,18.81l-0 0z"></path> <path id="path25" class="fil4" d="M2609.14 3833.59l0 1.71c39.32,-38.16 68.43,-62.42 87.22,-72.68 2.79,-1.5 5.98,-2.25 9.6,-2.25 5.99,0 9.08,1.71 9.08,4.92 0,4.81 -7.95,11.97 -23.94,21.49 -31.89,19.45 -58.31,38.8 -79.26,57.82 3.51,12.07 8.67,24.36 15.48,36.87 9.6,17.31 18.27,25.86 26.01,25.86 7.12,0 14.14,-6.31 21.05,-19.03 6.92,-12.61 10.53,-19.02 10.95,-19.02 1.03,0 1.55,1.28 1.55,3.85 0,1.81 -0.31,3.53 -1.03,4.92 -4.96,14.75 -9.09,24.58 -12.28,29.71 -6.71,10.26 -15.38,15.39 -26.01,15.39 -11.35,0 -22.19,-8.22 -32.41,-24.79 -8.46,-13.58 -13.83,-27.36 -16,-41.36 -9.18,11.01 -17.75,23.08 -25.49,36.34 0.31,1.07 0.52,2.24 0.52,3.31 0,7.38 -3.51,14.64 -10.63,21.81 -7.12,7.16 -14.35,10.69 -21.78,10.69 -2.48,0 -3.51,-0.96 -3.2,-2.78 2.48,-3.64 5.99,-9.41 10.64,-17.1 8.15,-17.21 20.75,-42.75 37.77,-76.53 -2.16,-9.51 -3.19,-15.17 -3.19,-17.09 0,-6.2 5.47,-11.01 16.51,-14.32 28.38,-66.8 55.64,-121.31 81.95,-163.53 -1.03,-2.56 -1.55,-5.13 -1.55,-7.7 0,-1.5 0.31,-2.89 1.03,-4.38 8.46,-15.06 15.07,-25.54 19.71,-31.42 3.93,-4.38 11.56,-6.63 22.92,-6.63 9.18,0 13.83,1.82 13.83,5.45 0,-0.32 -7.85,11.43 -23.43,35.27 -25.9,40.4 -51.91,85.93 -78.13,136.59 -18.79,35.91 -27.77,58.67 -27.45,68.61l-0.01 -0z"></path> <path id="path26" class="fil4" d="M2821.85 3925.62c-15.59,0 -23.43,-11.97 -23.43,-35.8 0,-8.01 1.03,-18.7 3.2,-31.96 2.48,-15.82 3.92,-26.4 4.23,-31.96 -46.86,62.09 -78.86,93.09 -96.3,93.09 -13.11,0 -19.72,-7.16 -19.72,-21.48 0,-12.08 3.92,-26.94 11.67,-44.57 1.03,-2.25 8.15,-15.92 21.26,-41.26l-1.03 -0c-2.16,0 -3.19,-0.96 -3.19,-2.78 0,-0.75 0.2,-1.6 0.52,-2.77 10.32,-19.13 16.1,-29.39 17.55,-30.89 6.71,-7.7 17.34,-11.55 31.89,-11.55 1.76,0 2.68,1.07 2.68,3.32 0,2.99 -9.39,19.77 -28.17,50.66 -5.26,8.77 -10.94,20.73 -17.03,35.8 -6.71,17.31 -10.11,29.6 -10.11,36.87 0,5.13 1.65,7.7 4.75,7.7 4.95,0 12.59,-4.6 22.91,-13.79 24.15,-20.95 47.48,-50.13 70.18,-87.53l1.65 -6.1c2.79,-11.01 7.23,-18.49 13.32,-22.55 5.98,-4.06 13.83,-6.09 23.43,-6.09 5.68,0 8.57,1.5 8.57,4.38 0,2.56 -2.99,7.48 -9.08,14.85 -7.12,8.44 -11.15,13.58 -12.28,15.39 -4.23,8.45 -8.15,22.55 -11.67,42.44 -3.19,18.38 -4.75,33.45 -4.75,45.21 0,16.56 4.03,24.79 12.28,24.79 7.12,0 16,-4.92 26.84,-14.85 10.84,-9.94 15.99,-14.85 15.69,-14.85 0.31,0 0.52,0.31 0.52,1.07 0,8.12 -8.67,18.91 -26.11,32.49 -11.25,8.44 -21.37,12.72 -30.24,12.72l-0 0z"></path> <path id="path27" class="fil4" d="M2992.56 3925.62c-15.59,0 -23.43,-11.97 -23.43,-35.8 0,-3.63 0.31,-8.77 1.03,-15.39 0.72,-6.63 1.55,-13.25 2.37,-19.88 0.83,-6.62 1.76,-12.61 2.69,-17.85 0.83,-5.34 1.34,-8.87 1.34,-10.69 -46.86,62.09 -78.85,93.09 -96.3,93.09 -13.11,0 -19.71,-7.16 -19.71,-21.48 0,-12.51 3.92,-27.36 11.66,-44.57 0.72,-1.07 2.79,-5.02 6.09,-11.86 3.3,-6.84 8.46,-16.57 15.17,-29.5l-1.03 -0c-2.17,0 -3.2,-0.96 -3.2,-2.78 0,-1.07 0.2,-2.03 0.52,-2.77 5.68,-11.01 10.32,-19.35 13.83,-25.01 3.51,-5.67 6.92,-9.83 10.11,-12.4 3.2,-2.57 6.61,-4.07 10.32,-4.38 3.72,-0.32 8.78,-0.53 15.17,-0.53 1.76,0 2.69,1.07 2.69,3.31 0,2.57 -9.39,19.45 -28.18,50.66 -2.89,4.38 -5.88,10.16 -9.08,17.32 -3.19,7.16 -6.08,14.32 -8.77,21.48 -2.69,7.16 -4.85,13.9 -6.61,20.09 -1.76,6.2 -2.69,10.79 -2.69,13.79 0,5.13 1.66,7.7 4.75,7.7 4.65,0 10.64,-2.89 18.06,-8.76 7.43,-5.88 15.48,-13.68 24.15,-23.41 8.67,-9.72 17.44,-20.63 26.32,-32.81 8.87,-12.08 17.03,-24.26 24.46,-36.34l1.66 -6.1c2.78,-11.01 7.22,-18.49 13.31,-22.54 5.98,-4.07 13.83,-6.1 23.43,-6.1 5.68,0 8.57,1.5 8.57,4.38 0,1.07 -1.03,3.21 -3.2,6.31 -2.16,3.1 -4.54,6.41 -7.22,9.94 -2.69,3.53 -5.16,6.63 -7.43,9.41 -2.27,2.78 -3.4,4.28 -3.4,4.7 -1.75,3.32 -3.61,8.77 -5.57,16.24 -1.97,7.48 -3.72,15.61 -5.37,24.26 -1.55,8.66 -2.89,17.31 -4.02,25.87 -1.03,8.65 -1.66,15.71 -1.66,21.16 0,16.56 4.03,24.79 12.28,24.79 2.79,0 6.81,-1.6 11.97,-4.7 5.16,-3.1 10.12,-6.52 14.87,-10.16 4.75,-3.63 8.87,-7.05 12.17,-10.16 3.4,-3.1 4.54,-4.7 3.4,-4.7 0.31,0 0.52,0.32 0.52,1.07 0,2.25 -1.66,5.77 -5.06,10.69 -3.4,4.92 -7.74,10.04 -13,15.18 -5.37,5.13 -11.35,9.61 -18.07,13.46 -6.39,3.74 -13.1,5.77 -19.91,5.77l0 0.01zm66.47 -257.79c-1.76,3.32 -5.47,7.06 -11.15,11.33 -5.68,4.28 -11.87,8.23 -18.58,11.87 -6.71,3.63 -13.41,6.73 -19.92,9.08 -6.61,2.35 -11.77,3.53 -15.69,3.53 -24.46,0 -36.74,-8.12 -36.74,-24.26 0,-14.32 3.51,-21.49 10.63,-21.49 1.03,0 1.55,1.71 1.55,5.24 0,3.52 0.31,7.27 1.03,11.33 0.72,4.06 2.69,7.8 5.89,11.33 3.19,3.53 8.46,5.24 15.99,5.24 4.23,0 9.71,-1.29 16.51,-3.85 6.71,-2.56 13.42,-5.45 20.23,-8.55 6.71,-3.1 12.8,-6.09 18.37,-8.87 5.47,-2.77 8.77,-4.16 9.8,-4.16l2.07 2.24z"></path> <path id="path28" class="fil4" d="M1877.9 4289.96c-2.89,12.82 -8.15,23.3 -16,31.42 -7.84,8.13 -16.92,14.75 -27.35,20.09 -10.42,5.34 -21.78,9.73 -34.06,13.25 -12.28,3.52 -24.15,7.05 -35.92,10.69 -11.66,3.63 -22.5,7.69 -32.41,12.07 -9.91,4.38 -18.06,10.26 -24.46,17.64 -11.67,13.89 -14.35,25.87 -7.95,35.8 2.48,2.89 5.36,5.67 8.77,8.23 3.4,2.56 7.54,4.81 12.49,6.62 -3.2,1.07 -7.54,0.32 -13.01,-2.24 -5.47,-2.57 -9.29,-5.45 -11.45,-8.77 -2.89,-4.06 -4.85,-8.87 -6.09,-14.64 -1.23,-5.66 -1.65,-11.43 -1.34,-17.1 0.31,-5.66 1.44,-11.22 3.2,-16.56 1.76,-5.34 4.23,-9.83 7.43,-13.47l0.52 -1.07c5.36,-5.88 13.21,-10.69 23.64,-14.32 10.42,-3.63 21.88,-6.95 34.26,-9.94 12.38,-2.99 25.18,-5.88 38.29,-8.77 13.11,-2.99 25.08,-6.74 35.92,-11.33 10.84,-4.6 19.61,-10.37 26.32,-17.31 5.67,-5.56 9.18,-12.29 10.63,-20.42 -3.92,2.99 -7.64,5.88 -11.15,8.77 -3.51,2.99 -7.33,5.45 -11.45,7.48 -4.12,2.03 -8.25,2.99 -12.49,2.99 -7.84,-0.43 -13.63,-3.32 -17.55,-8.87 -3.92,-5.45 -5.88,-14.11 -5.88,-25.86 0,-3.64 0.31,-8.77 1.03,-15.4 0.72,-6.62 1.55,-13.25 2.37,-19.88 0.93,-6.63 1.76,-12.61 2.69,-17.85 0.82,-5.34 1.34,-8.88 1.34,-10.69 -46.75,62.09 -78.85,93.09 -96.29,93.09 -13.11,0 -19.72,-7.16 -19.72,-21.49 0,-12.5 3.92,-27.36 11.67,-44.56 0.72,-1.07 2.78,-5.02 6.08,-11.86 3.41,-6.84 8.46,-16.57 15.17,-29.5l-1.04 -0.01c-2.16,0 -3.2,-0.96 -3.2,-2.78 0,-1.07 0.21,-2.03 0.52,-2.78 5.68,-11.01 10.32,-19.34 13.83,-25 3.51,-5.67 6.91,-9.83 10.11,-12.4 3.2,-2.56 6.61,-4.06 10.32,-4.38 3.72,-0.32 8.77,-0.53 15.17,-0.53 1.75,0 2.68,1.07 2.68,3.32 0,2.56 -9.39,19.45 -28.17,50.66 -2.89,4.38 -5.88,10.16 -9.08,17.31 -3.2,7.16 -6.09,14.32 -8.78,21.49 -2.68,7.16 -4.85,13.89 -6.61,20.09 -1.75,6.2 -2.68,10.79 -2.68,13.79 0,5.13 1.55,7.7 4.75,7.7 4.65,0 10.63,-2.89 18.06,-8.77 7.43,-5.88 15.48,-13.68 24.15,-23.41 8.67,-9.73 17.44,-20.63 26.32,-32.81 8.88,-12.07 17.03,-24.26 24.46,-36.34l1.55 -6.09c2.79,-11.01 7.22,-18.49 13.31,-22.55 5.99,-4.06 13.83,-6.09 23.43,-6.09 5.68,0 8.46,1.5 8.46,4.38 0,1.07 -1.03,3.2 -3.2,6.31 -2.16,3.1 -4.54,6.41 -7.22,9.94 -2.68,3.53 -5.16,6.62 -7.43,9.4 -2.27,2.78 -3.41,4.28 -3.41,4.7 -1.75,3.32 -3.61,8.77 -5.57,16.24 -1.97,7.49 -3.72,15.61 -5.37,24.27 -1.55,8.65 -2.89,17.31 -4.02,25.86 -1.03,8.66 -1.55,15.71 -1.55,21.16 0,16.57 4.02,24.8 12.28,24.8 2.79,0 5.99,-1.07 9.6,-3.32l10.63 -7.16c1.44,-1.07 2.79,-2.25 4.23,-3.32 1.03,-1.82 1.76,-3.32 2.16,-4.38 0.72,-1.5 2.17,-2.03 4.23,-1.6 1.76,0.31 2.69,2.24 2.69,5.45 0,0.43 0.2,0.74 0.52,1.07l-0.52 0.53c0,2.68 -1.13,5.67 -2.89,8.98l0 0.01z"></path> <path id="path29" class="fil4" d="M2015.68 4216.74c0,1.5 -2.48,2.25 -7.43,2.25 -2.17,0 -5.37,-0.32 -9.6,-0.86 -4.23,-0.53 -7.43,-0.85 -9.6,-0.85 -16,0 -36.02,2.56 -60.07,7.69 -12.38,23.51 -18.58,41.15 -18.58,52.91 0,12.82 6.39,19.24 19.19,19.24 10.63,0 22.5,-4.38 35.61,-13.25 8.88,-6.2 18.27,-14.64 28.17,-25.33 8.46,-8.76 12.91,-13.25 13.31,-13.25 1.04,0 1.55,0.75 1.55,2.25 0,8.44 -6.61,17.96 -19.72,28.64 -28.38,22.45 -58.11,33.56 -89.38,33.56 -8.46,0 -14.04,-1.82 -16.51,-5.46 -1.76,-2.56 -2.69,-7.38 -2.69,-14.32 0,-13.57 5.89,-33.24 17.55,-58.88 -0.31,-0.75 -0.52,-1.29 -0.52,-1.61 0,-0.32 1.55,-2.99 4.75,-7.69 2.17,-4.07 5.16,-9.73 9.08,-17.1 15.59,-26.4 32.83,-42.22 51.61,-47.34 4.65,-1.07 8.36,-1.61 11.15,-1.61 2.48,0 3.71,0.53 3.71,1.61 0,1.5 -2.27,3.84 -6.91,7.16 -9.19,6.95 -20.54,22.45 -34.06,46.28 18.47,-3.31 34.37,-4.38 47.89,-3.31 10.63,-15.82 16,-30.99 16,-45.74 0,-4.07 -0.41,-6.42 -1.34,-7.16 -0.93,-0.75 -2.99,-1.07 -6.4,-1.07 -3.4,0 -5.05,-0.86 -5.05,-2.78 0,-1.82 2.79,-3.53 8.46,-4.92 5.67,-1.5 10.11,-2.24 13.31,-2.24 9.6,0 14.35,4.59 14.35,13.79 0,7.69 -3.2,17.31 -9.6,28.64 -6.4,11.43 -12.8,18.91 -19.1,22.55 13.94,2.46 20.85,5.23 20.85,8.22l0 0.01z"></path> <path id="path30" class="fil4" d="M2149.13 4191.42c3.93,-9.94 8.78,-16.57 14.66,-19.88 5.89,-3.31 12.8,-4.92 21.06,-4.92 4.95,0 7.12,1.29 6.39,3.85 0,1.07 -1.13,2.99 -3.4,5.77 -2.27,2.78 -4.85,5.56 -7.74,8.55l-11.15 11.55c-2.16,2.99 -4.65,7.59 -7.43,14 -2.89,6.41 -5.57,13.36 -8.25,20.95 -2.69,7.59 -5.06,14.96 -7.22,22.33 -2.17,7.38 -3.51,13.36 -4.23,18.17 -2.89,14.32 -0.72,21.49 6.39,21.49 2.48,0 6.09,-1.29 10.94,-3.85 4.75,-2.56 9.6,-5.56 14.35,-8.77 4.75,-3.31 8.77,-6.2 11.97,-8.76 2.48,-1.82 3.72,-2.99 3.72,-3.32 -0.31,1.82 -2.27,4.92 -5.89,9.08 -3.51,4.17 -7.94,8.55 -13.31,12.94 -5.36,4.38 -11.14,8.34 -17.55,11.86 -6.39,3.53 -12.38,5.23 -18.06,5.23 -13.52,0 -18.27,-10.25 -14.35,-30.88 0.31,-3.32 1.66,-8.55 4.03,-15.71 2.27,-7.16 4.74,-14.43 7.22,-21.81 1.75,-4.81 3.4,-9.4 4.75,-13.79 -1.44,0 -3,0.21 -4.75,0.53 -8.46,1.07 -18.06,3.32 -28.7,6.63 -9.6,2.99 -19.09,6.41 -28.69,10.47l-0.52 1.07c-4.65,11.44 -9.08,22.02 -13.31,31.96 -4.23,9.94 -7.64,17.63 -10.12,23.09 -0.72,1.5 -2.37,2.99 -5.05,4.7 -2.69,1.71 -5.36,3.2 -8.26,4.7 -2.89,1.5 -5.68,2.78 -8.46,3.85 -2.9,1.07 -4.75,1.6 -5.89,1.6 -2.16,0 -3.2,-0.53 -3.2,-1.6l0 -1.07c8.88,-15.39 17.55,-32.81 26.01,-52.37 0.31,-0.74 0.52,-1.5 0.52,-2.24 8.88,-20.2 18.47,-42.54 28.7,-67.23 0,-0.74 -0.93,-1.07 -2.69,-1.07 -1.76,0 -2.69,-0.53 -2.69,-1.6 0,-0.32 6.4,-11.55 19.1,-33.56 1.44,-2.25 4.64,-4.38 9.6,-6.63 4.95,-2.25 8.88,-3.32 11.66,-3.32 3.51,0 5.37,1.61 5.37,4.92 0,-0.74 -1.24,1.71 -3.72,7.49 -2.48,5.66 -5.68,13.14 -9.6,22.33 -3.93,9.19 -8.36,19.67 -13.31,31.42 -3.2,6.95 -6.19,14 -9.08,20.94 2.78,-0.75 5.88,-1.6 9.08,-2.77 9.91,-3.32 19.3,-5.88 28.17,-7.7 8.46,-1.5 16.1,-2.56 22.91,-3.32 2.17,-5.13 3.4,-8.44 3.72,-9.94l6.29 -15.39z"></path> <path id="path31" class="fil4" d="M2462.89 4259.07c0,1.82 -1.03,4.38 -3.2,7.7 -5.98,9.94 -14.14,18.7 -24.46,26.4 -11.35,8.44 -22.19,12.72 -32.41,12.72 -20.95,0 -31.38,-13.04 -31.38,-39.12 0,-15.82 5.16,-38.16 15.38,-67.23 -13.52,17.63 -33.34,39.12 -59.55,64.45 -2.89,9.52 -7.43,17.96 -13.83,25.33 -7.84,8.77 -16,13.25 -24.46,13.25 -2.89,0 -4.23,-0.86 -4.23,-2.78 0,-0.32 0.2,-0.75 0.52,-1.07 7.43,-19.13 15.07,-38.05 22.91,-56.75 10.32,-26.83 15.38,-45.53 15.38,-56.22 0,-4.06 -1.03,-6.09 -3.19,-6.09 -6.4,0 -20.95,13.58 -43.56,40.72 -16.72,20.52 -29.83,38.05 -39.32,52.37 -5.68,8.44 -10.84,17.31 -15.38,26.4 -1.03,2.99 -5.16,6.2 -12.28,9.61 -7.12,3.53 -12.28,5.24 -15.38,5.24 -2.48,0 -3.51,-0.96 -3.2,-2.78 10.32,-17.95 25.49,-53.22 45.72,-105.7l5.88 -16.04c0,-0.75 -0.92,-1.07 -2.89,-1.07 -1.96,0 -2.89,-0.53 -2.89,-1.61l19.72 -33.56c1.03,-2.24 4.02,-4.38 9.08,-6.62 5.06,-2.25 8.88,-3.32 11.67,-3.32 3.51,0 5.36,1.6 5.36,4.92 0,1.07 -5.68,15.39 -17.03,42.96 -12.07,29.39 -18.79,46.82 -20.23,52.27 11.67,-14.64 27.87,-31.96 48.41,-51.73 26.22,-25.65 43.45,-38.58 51.61,-38.58 4.95,0 7.43,4.06 7.43,12.08 0,17.63 -8.36,45.74 -24.98,84.22 31.59,-28.64 53.67,-52.69 66.47,-72.14 2.48,-3.63 5.88,-5.56 10.11,-5.56 7.43,0 11.15,3.63 11.15,11.01 0,4.07 -1.34,9.73 -4.03,17.1 -2.68,7.38 -5.36,11.76 -8.25,13.25 -4.65,17.95 -6.92,34.31 -6.92,49.06 0,19.45 4.96,29.17 14.87,29.17 7.84,0 24.67,-11.22 50.57,-33.56 0.52,0.21 0.83,0.53 0.83,1.28l-0.01 0z"></path> <path id="path32" class="fil4" d="M2506.55 4309.19c-18.06,0 -31.38,-3.1 -39.84,-9.4 -30.45,64.56 -45.72,111.8 -45.72,141.51 0,17.96 4.23,27.04 12.8,27.04 7.12,0 15.99,-4.92 26.83,-14.85 10.84,-9.94 16,-14.85 15.69,-14.85 0.31,0 0.52,0.31 0.52,1.07 0,8.01 -8.67,18.91 -26.01,32.49 -11.35,8.44 -21.47,12.72 -30.34,12.72 -15.59,0 -23.43,-11.97 -23.43,-35.8 0,-29.71 19.82,-84.11 59.55,-162.98 -0.72,-2.57 -1.04,-5.34 -1.04,-8.23 0,-14 7.12,-24.05 21.26,-30.25 16.31,-29.71 35.4,-60.92 57.49,-93.62 -9.18,-14.64 -17.55,-24.37 -24.97,-29.17 -1.04,-0.75 -1.66,-1.61 -1.66,-2.78 0,-2.56 2.27,-5.88 6.92,-9.94 4.65,-4.07 8.36,-6.1 11.14,-6.1 3.51,0 11.15,8.77 22.81,26.4 12.8,-18.7 21.26,-28.11 25.49,-28.11 1.44,0 2.17,0.96 2.17,2.77 0,0.75 -7.12,12.08 -21.26,34.1 21.98,35.27 32.92,64.66 32.92,88.17 0,19.45 -8.88,37.62 -26.63,54.51 -17.65,16.88 -35.92,25.33 -54.7,25.33l0 -0zm60.58 -63.27c0,-23.51 -8.87,-50.66 -26.63,-81.55 -14.55,23.51 -28.69,48.31 -42.52,74.38 2.48,-1.5 4.65,-2.24 6.39,-2.24 1.76,0 2.69,0.74 2.69,2.24 0,3.32 -5.47,7.91 -16.51,13.79 -5.36,10.26 -10.42,20.42 -15.38,30.25 5.98,10.26 18.47,15.39 37.26,15.39 16,0 29.1,-4.7 39.32,-14 10.22,-9.41 15.38,-22.12 15.38,-38.26l0 0z"></path> </g> </svg> 